<?xml version="1.0" encoding="UTF-8"?>
<svg width="48" height="48" version="1.0" viewBox=".171 .201 512 512" xml:space="preserve" xmlns="http://www.w3.org/2000/svg" xmlns:cc="http://creativecommons.org/ns#" xmlns:dc="http://purl.org/dc/elements/1.1/" xmlns:rdf="http://www.w3.org/1999/02/22-rdf-syntax-ns#" xmlns:xlink="http://www.w3.org/1999/xlink"><metadata><rdf:RDF><cc:Work rdf:about=""><dc:format>image/svg+xml</dc:format><dc:type rdf:resource="http://purl.org/dc/dcmitype/StillImage"/></cc:Work></rdf:RDF></metadata><defs><filter id="filter4350" x="-.05366" y="-.05312" width="1.107" height="1.106" color-interpolation-filters="sRGB"><feGaussianBlur stdDeviation="8.7848425"/></filter><linearGradient id="linearGradient4245" x1="-122.2" x2="236.6" y1="-161.9" y2="300.7" gradientTransform="matrix(.8739 0 0 .8282 246 250.3)" gradientUnits="userSpaceOnUse"><stop stop-color="#8381c5" offset="0"/><stop stop-color="#7e55b3" stop-opacity=".9961" offset=".5664"/><stop stop-color="#a52ecb" stop-opacity=".9922" offset="1"/></linearGradient><linearGradient id="linearGradient4247" x1="447.8" x2="173.9" y1="396.6" y2="66.02" gradientTransform="matrix(.9868 0 0 .9868 3.034 2.525)" gradientUnits="userSpaceOnUse"><stop stop-color="#411f5d" offset="0"/><stop stop-color="#5b2a85" offset="1"/></linearGradient></defs><rect x=".171" y=".201" width="512" height="512" display="none" fill="none"/><g display="none"><g display="inline"><path d="m349.1 256.7c-0.265-0.254 37.64 27.6 39.42 25.01 6.362-9.252 82.05-93.14 84.78-116.2 0.242-2.003-0.516-4.096-0.516-4.096s-1.19-0.144-6.325-4.314c-2.692-2.192-5.483-4.581-5.483-4.581-16.05 0.998-57.88 41.56-111.1 103.6" display="none" fill="#050505"/></g></g><g><path transform="matrix(.9868 0 0 .9868 3.034 2.525)" d="m491.7 257.8c0 131.8-105.8 238.6-236.2 238.6s-236.2-106.8-236.2-238.6c0-131.8 105.8-238.6 236.2-238.6s236.2 106.8 236.2 238.6z" fill="#211f46" fill-opacity=".9961" filter="url(#filter4350)" opacity=".405" stroke="#0a0b1b" stroke-width="8.533"/><path d="m488.2 256.9c0 130.1-104.4 235.5-233.1 235.5s-233.1-105.4-233.1-235.5c0-130.1 104.4-235.5 233.1-235.5s233.1 105.4 233.1 235.5z" fill="url(#linearGradient4245)" stroke="url(#linearGradient4247)" stroke-width="13.34"/><path d="m175 422.3s19.74 1.396 45.13-0.8416c10.28-0.9063 49.33-4.741 78.52-11.14 0 0 35.59-7.617 54.63-14.63 19.92-7.342 30.76-13.57 35.64-22.4-0.2128-1.809 1.502-8.224-7.685-12.08-23.49-9.852-50.73-8.07-104.6-9.213-59.78-2.054-79.66-12.06-90.26-20.12-10.16-8.175-5.05-30.79 38.47-50.71 21.92-10.61 107.9-30.19 107.9-30.19-28.95-14.31-82.92-39.46-94.01-44.89-9.731-4.763-25.3-11.94-28.68-20.61-3.827-8.331 9.038-15.51 16.22-17.56 23.14-6.676 55.82-10.83 85.55-11.29 14.95-0.2342 17.37-1.196 17.37-1.196 20.62-3.421 34.2-17.53 28.54-39.88-5.078-22.81-31.86-36.21-57.31-31.57-23.97 4.37-81.74 21.15-81.74 21.15 71.41-0.618 83.36 0.5738 88.7 8.037 3.152 4.407-1.432 10.45-20.48 13.56-20.73 3.386-63.83 7.464-63.83 7.464-41.34 2.455-70.47 2.62-79.2 21.11-5.706 12.08 6.085 22.76 11.25 29.45 21.84 24.29 53.39 37.39 73.69 47.04 7.64 3.63 30.06 10.48 30.06 10.48-65.88-3.623-113.4 16.61-141.3 39.9-31.53 29.16-17.58 63.92 47.01 85.33 38.15 12.64 57.07 18.59 114 13.46 33.52-1.807 38.8-0.7316 39.14 2.019 0.4705 3.872-37.23 13.49-47.52 16.46-26.19 7.553-94.83 22.8-95.17 22.88z" fill="#fff" fill-rule="evenodd" stroke-width="0"/></g><g font-family="'JetBrains Mono'" font-weight="bold" stroke-width="10.67"><text x="302.27271" y="226.3705" fill="#000000" font-size="2048px" xml:space="preserve"><tspan stroke-width="10.67"/></text><g fill="#ffffff"><text x="338.61169" y="261.08237" font-size="256px" xml:space="preserve"><tspan fill="#ffffff" font-size="256px" stroke-width="10.67"/></text><text x="320.71338" y="253.48915" font-size="256px" xml:space="preserve"><tspan stroke-width="10.67"/></text><text x="255.08627" y="421.62476" font-size="341.3px" xml:space="preserve"><tspan font-size="341.3px" stroke-width="10.67"/></text><g font-size="341.3px"><text x="241.52695" y="430.3027" xml:space="preserve"><tspan stroke-width="10.67"/></text><text x="247.49304" y="437.35355" xml:space="preserve"><tspan stroke-width="10.67"/></text><text x="216.0354" y="407.52304" xml:space="preserve"><tspan stroke-width="10.67"/></text><text x="251.28966" y="431.38745" xml:space="preserve"><tspan stroke-width="10.67"/></text><text x="243.69641" y="437.8959" stroke="#42205f" xml:space="preserve"><tspan x="243.69641" y="437.8959" stroke="#42205f" stroke-width="10.67">J</tspan></text></g></g></g></svg>
